<svg width="94" height="20" viewBox="0 0 94 20" fill="none" xmlns="http://www.w3.org/2000/svg">
<path fill-rule="evenodd" clip-rule="evenodd" d="M13.9092 0V15.5039H9.59026V11.6058H7.19823L4.65116 15.5039H0.0442971L3.18937 10.9635C2.15578 10.5057 1.36582 9.84865 0.819491 8.99225C0.273164 8.12108 0 7.08749 0 5.89147C0 4.68069 0.280546 3.63234 0.841639 2.7464C1.40273 1.86047 2.20746 1.18125 3.25581 0.708749C4.30417 0.23625 5.52972 0 6.93245 0H13.9092ZM7.02104 3.45515C5.29347 3.45515 4.42968 4.24511 4.42968 5.82503C4.42968 6.60761 4.64378 7.20561 5.07198 7.61905C5.51495 8.01772 6.14987 8.21706 6.97674 8.21706H9.59026V3.45515H7.02104ZM38.1201 15.5039L38.0979 7.28682L34.1112 13.9756H32.1622L28.1754 7.46401V15.5039H24.1444V0H27.7546L33.2031 8.94795L38.5188 0H42.1289L42.1732 15.5039H38.1201ZM47.8937 14.9059C48.9273 15.4374 50.0864 15.7032 51.371 15.7032C52.6704 15.7032 53.8369 15.4374 54.8705 14.9059C55.9041 14.3743 56.7088 13.636 57.2846 12.691C57.8605 11.746 58.1484 10.6755 58.1484 9.47951C58.1484 8.2835 57.8605 7.22038 57.2846 6.29015C56.7088 5.34515 55.9041 4.61425 54.8705 4.09745C53.8369 3.56589 52.6704 3.30011 51.371 3.30011C50.0716 3.30011 48.9052 3.56589 47.8716 4.09745C46.8527 4.61425 46.048 5.34515 45.4574 6.29015C44.8815 7.23514 44.5936 8.29827 44.5936 9.47951C44.5936 10.6755 44.8815 11.746 45.4574 12.691C46.048 13.636 46.8601 14.3743 47.8937 14.9059ZM53.1872 11.6058C52.7147 12.1078 52.1093 12.3588 51.371 12.3588C50.6327 12.3588 50.0273 12.1078 49.5548 11.6058C49.0823 11.089 48.8461 10.3802 48.8461 9.47951C48.8461 8.59358 49.0823 7.89959 49.5548 7.39756C50.0273 6.89553 50.6327 6.64452 51.371 6.64452C52.1093 6.64452 52.7147 6.89553 53.1872 7.39756C53.6597 7.89959 53.8959 8.59358 53.8959 9.47951C53.8959 10.3802 53.6597 11.089 53.1872 11.6058ZM70.4075 6.84385H64.5382V15.5039H60.3521V3.49945H70.4075V6.84385ZM80.0325 15.9911L85.2152 3.49945H81.2064L78.2385 10.8306L75.2928 3.49945H70.9738L76.1122 15.6589C75.9351 16.0133 75.7136 16.2717 75.4478 16.4341C75.1968 16.5965 74.8719 16.6777 74.4733 16.6777C74.1337 16.6777 73.7941 16.6113 73.4544 16.4784C73.1296 16.3603 72.849 16.1905 72.6128 15.969L71.151 18.9147C71.5497 19.2396 72.0665 19.498 72.7014 19.6899C73.3511 19.8966 73.9934 20 74.6283 20C75.8834 20 76.9465 19.6973 77.8177 19.0919C78.6888 18.5013 79.4271 17.4677 80.0325 15.9911ZM93.5908 1.7874L88.0413 0.73825L87.2876 9.79237L90.9873 10.4918L93.5908 1.7874ZM86.2406 14.7675C86.6569 15.343 87.2624 15.7058 88.0572 15.8561C88.8519 16.0063 89.5481 15.8896 90.1458 15.5058C90.7435 15.1221 91.107 14.5876 91.2366 13.9025C91.3687 13.2037 91.224 12.5802 90.8025 12.0322C90.3836 11.4705 89.7767 11.1145 88.982 10.9642C88.1872 10.814 87.4923 10.9239 86.8973 11.2939C86.3048 11.6503 85.9425 12.1778 85.8104 12.8767C85.6808 13.5618 85.8242 14.1921 86.2406 14.7675Z" fill="white"/>
</svg>
