<svg width="24" height="24" viewBox="0 0 24 24" fill="none" xmlns="http://www.w3.org/2000/svg">
<path d="M12 6C13.1046 6 14 5.10457 14 4C14 2.89543 13.1046 2 12 2C10.8954 2 10 2.89543 10 4C10 5.10457 10.8954 6 12 6Z" fill="#BB8FCE"/>
<path d="M15.89 8.11C15.5 7.72 14.83 7 13.53 7C13.32 7 12.11 7 10.99 7C8.58005 6.99124 6.56177 5.26987 6.09948 2.9935C5.98957 2.45227 5.55228 2 5 2C4.44772 2 3.99248 2.45026 4.07094 2.99694C4.42476 5.46201 6.07064 7.51836 8.30085 8.45823C8.70747 8.62959 9 9.01204 9 9.45329V21C9 21.5523 9.44772 22 10 22C10.5523 22 11 21.5523 11 21V17C11 16.4477 11.4477 16 12 16C12.5523 16 13 16.4477 13 17V21C13 21.5523 13.4477 22 14 22C14.5523 22 15 21.5523 15 21V10.05L18.2446 13.2946C18.6342 13.6842 19.2658 13.6842 19.6554 13.2946C20.0447 12.9053 20.045 12.2743 19.6562 11.8846L15.89 8.11Z" fill="#BB8FCE"/>
</svg>
