<svg width="24" height="24" viewBox="0 0 24 24" fill="none" xmlns="http://www.w3.org/2000/svg">
<path d="M18.75 5.76923V3H3V18.2308C3 18.2308 3 21 5.25 21H19.3125C19.3125 21 21 20.9571 21 18.2308V5.76923H18.75ZM5.25 19.6154C4.125 19.6154 4.125 18.2308 4.125 18.2308V4.38462H17.625V18.2308C17.625 18.8684 17.7847 19.3101 18.0052 19.6154H5.25Z" fill="#BB8FCE"/>
<path d="M16.5 7.1543H5.25V8.53891H16.5V7.1543Z" fill="#BB8FCE"/>
<path d="M15.375 15.4619H11.4375V16.8465H15.375V15.4619Z" fill="#BB8FCE"/>
<path d="M16.5 12.6924H11.4375V14.077H16.5V12.6924Z" fill="#BB8FCE"/>
<path d="M16.5 9.92285H11.4375V11.3075H16.5V9.92285Z" fill="#BB8FCE"/>
<path d="M10.3125 9.92285H5.25V16.8459H10.3125V9.92285Z" fill="#BB8FCE"/>
</svg>
