<svg width="24" height="24" viewBox="0 0 20 20" fill="none" xmlns="http://www.w3.org/2000/svg">
<path d="M16.75 3.76923V1H1V16.2308C1 16.2308 1 19 3.25 19H17.3125C17.3125 19 19 18.9571 19 16.2308V3.76923H16.75ZM3.25 17.6154C2.125 17.6154 2.125 16.2308 2.125 16.2308V2.38462H15.625V16.2308C15.625 16.8684 15.7848 17.3101 16.0053 17.6154H3.25Z" fill="#8E44AD"/>
<path d="M14.5 5.1543H3.25V6.53891H14.5V5.1543Z" fill="#8E44AD"/>
<path d="M13.375 13.4619H9.4375V14.8465H13.375V13.4619Z" fill="#8E44AD"/>
<path d="M14.5 10.6924H9.4375V12.077H14.5V10.6924Z" fill="#8E44AD"/>
<path d="M14.5 7.92285H9.4375V9.30747H14.5V7.92285Z" fill="#8E44AD"/>
<path d="M8.3125 7.92285H3.25V14.8459H8.3125V7.92285Z" fill="#8E44AD"/>
</svg>
