<svg width="24" height="24" viewBox="0 0 24 24" fill="none" xmlns="http://www.w3.org/2000/svg">
<path d="M10.7188 4H4.46875C4.20987 4 4 4.20987 4 4.46875V10.7188C4 10.9776 4.20987 11.1875 4.46875 11.1875H10.7188C10.9776 11.1875 11.1875 10.9776 11.1875 10.7188V4.46875C11.1875 4.20987 10.9776 4 10.7188 4ZM10.25 10.25H4.9375V4.9375H10.25V10.25Z" fill="#BB8FCE"/>
<path d="M8.53125 6.1875H6.65625C6.39737 6.1875 6.1875 6.39737 6.1875 6.65625V8.53125C6.1875 8.79012 6.39737 9 6.65625 9H8.53125C8.79012 9 9 8.79012 9 8.53125V6.65625C9 6.39737 8.79012 6.1875 8.53125 6.1875Z" fill="#BB8FCE"/>
<path d="M19.5312 4H13.2812C13.0224 4 12.8125 4.20987 12.8125 4.46875V10.7188C12.8125 10.9776 13.0224 11.1875 13.2812 11.1875H19.5312C19.7901 11.1875 20 10.9776 20 10.7188V4.46875C20 4.20987 19.7901 4 19.5312 4ZM19.0625 10.25H13.75V4.9375H19.0625V10.25Z" fill="#BB8FCE"/>
<path d="M17.3438 6.1875H15.4688C15.2099 6.1875 15 6.39737 15 6.65625V8.53125C15 8.79012 15.2099 9 15.4688 9H17.3438C17.6026 9 17.8125 8.79012 17.8125 8.53125V6.65625C17.8125 6.39737 17.6026 6.1875 17.3438 6.1875Z" fill="#BB8FCE"/>
<path d="M10.7188 12.8125H4.46875C4.20987 12.8125 4 13.0224 4 13.2812V19.5312C4 19.7901 4.20987 20 4.46875 20H10.7188C10.9776 20 11.1875 19.7901 11.1875 19.5312V13.2812C11.1875 13.0224 10.9776 12.8125 10.7188 12.8125ZM10.25 19.0625H4.9375V13.75H10.25V19.0625Z" fill="#BB8FCE"/>
<path d="M8.53125 15H6.65625C6.39737 15 6.1875 15.2099 6.1875 15.4688V17.3438C6.1875 17.6026 6.39737 17.8125 6.65625 17.8125H8.53125C8.79012 17.8125 9 17.6026 9 17.3438V15.4688C9 15.2099 8.79012 15 8.53125 15Z" fill="#BB8FCE"/>
<path d="M19.5312 17.2074H16.875V15.4688C16.875 15.2099 16.6651 15 16.4062 15C16.1474 15 15.9375 15.2099 15.9375 15.4688V17.6762C15.9375 17.935 16.1474 18.1449 16.4062 18.1449H19.0625V19.0625H16.4062C16.1474 19.0625 15.9375 19.2724 15.9375 19.5312C15.9375 19.7901 16.1474 20 16.4062 20H19.5312C19.7901 20 20 19.7901 20 19.5312V17.6762C20 17.4173 19.7901 17.2074 19.5312 17.2074Z" fill="#BB8FCE"/>
<path d="M19.5312 12.8125C19.2724 12.8125 19.0625 13.0224 19.0625 13.2812V15.4688C19.0625 15.7276 19.2724 15.9375 19.5312 15.9375C19.7901 15.9375 20 15.7276 20 15.4688V13.2812C20 13.0224 19.7901 12.8125 19.5312 12.8125Z" fill="#BB8FCE"/>
<path d="M15.4688 12.8125H13.2812C13.0224 12.8125 12.8125 13.0224 12.8125 13.2812V15.4688C12.8125 15.7276 13.0224 15.9375 13.2812 15.9375C13.5401 15.9375 13.75 15.7276 13.75 15.4688V13.75H15.4688C15.7276 13.75 15.9375 13.5401 15.9375 13.2812C15.9375 13.0224 15.7276 12.8125 15.4688 12.8125Z" fill="#BB8FCE"/>
<path d="M13.2812 17.207C13.0224 17.207 12.8125 17.4169 12.8125 17.6758V19.5309C12.8125 19.7897 13.0224 19.9996 13.2812 19.9996C13.5401 19.9996 13.75 19.7897 13.75 19.5309V17.6758C13.75 17.4169 13.5401 17.207 13.2812 17.207Z" fill="#BB8FCE"/>
</svg>
