<svg width="24" height="24" viewBox="0 0 24 24" fill="none" xmlns="http://www.w3.org/2000/svg">
<path d="M10.0781 0H0.703125C0.314812 0 0 0.314812 0 0.703125V10.0781C0 10.4664 0.314812 10.7812 0.703125 10.7812H10.0781C10.4664 10.7812 10.7812 10.4664 10.7812 10.0781V0.703125C10.7812 0.314812 10.4664 0 10.0781 0ZM9.375 9.375H1.40625V1.40625H9.375V9.375Z" fill="#BB8FCE"/>
<path d="M6.79688 3.28125H3.98438C3.59606 3.28125 3.28125 3.59606 3.28125 3.98438V6.79688C3.28125 7.18519 3.59606 7.5 3.98438 7.5H6.79688C7.18519 7.5 7.5 7.18519 7.5 6.79688V3.98438C7.5 3.59606 7.18519 3.28125 6.79688 3.28125Z" fill="#BB8FCE"/>
<path d="M23.2969 0H13.9219C13.5336 0 13.2188 0.314812 13.2188 0.703125V10.0781C13.2188 10.4664 13.5336 10.7812 13.9219 10.7812H23.2969C23.6852 10.7812 24 10.4664 24 10.0781V0.703125C24 0.314812 23.6852 0 23.2969 0ZM22.5938 9.375H14.625V1.40625H22.5938V9.375Z" fill="#BB8FCE"/>
<path d="M20.0156 3.28125H17.2031C16.8148 3.28125 16.5 3.59606 16.5 3.98438V6.79688C16.5 7.18519 16.8148 7.5 17.2031 7.5H20.0156C20.4039 7.5 20.7188 7.18519 20.7188 6.79688V3.98438C20.7188 3.59606 20.4039 3.28125 20.0156 3.28125Z" fill="#BB8FCE"/>
<path d="M10.0781 13.2188H0.703125C0.314812 13.2188 0 13.5336 0 13.9219V23.2969C0 23.6852 0.314812 24 0.703125 24H10.0781C10.4664 24 10.7812 23.6852 10.7812 23.2969V13.9219C10.7812 13.5336 10.4664 13.2188 10.0781 13.2188ZM9.375 22.5938H1.40625V14.625H9.375V22.5938Z" fill="#BB8FCE"/>
<path d="M6.79688 16.5H3.98438C3.59606 16.5 3.28125 16.8148 3.28125 17.2031V20.0156C3.28125 20.4039 3.59606 20.7188 3.98438 20.7188H6.79688C7.18519 20.7188 7.5 20.4039 7.5 20.0156V17.2031C7.5 16.8148 7.18519 16.5 6.79688 16.5Z" fill="#BB8FCE"/>
<path d="M23.2969 19.8111H19.3125V17.2031C19.3125 16.8148 18.9977 16.5 18.6094 16.5C18.2211 16.5 17.9062 16.8148 17.9062 17.2031V20.5142C17.9062 20.9025 18.2211 21.2174 18.6094 21.2174H22.5938V22.5938H18.6094C18.2211 22.5938 17.9062 22.9086 17.9062 23.2969C17.9062 23.6852 18.2211 24 18.6094 24H23.2969C23.6852 24 24 23.6852 24 23.2969V20.5142C24 20.1259 23.6852 19.8111 23.2969 19.8111Z" fill="#BB8FCE"/>
<path d="M23.2969 13.2188C22.9086 13.2188 22.5938 13.5336 22.5938 13.9219V17.2031C22.5938 17.5914 22.9086 17.9062 23.2969 17.9062C23.6852 17.9062 24 17.5914 24 17.2031V13.9219C24 13.5336 23.6852 13.2188 23.2969 13.2188Z" fill="#BB8FCE"/>
<path d="M17.2031 13.2188H13.9219C13.5336 13.2188 13.2188 13.5336 13.2188 13.9219V17.2031C13.2188 17.5914 13.5336 17.9062 13.9219 17.9062C14.3102 17.9062 14.625 17.5914 14.625 17.2031V14.625H17.2031C17.5914 14.625 17.9062 14.3102 17.9062 13.9219C17.9062 13.5336 17.5914 13.2188 17.2031 13.2188Z" fill="#BB8FCE"/>
<path d="M13.9219 19.811C13.5336 19.811 13.2188 20.1258 13.2188 20.5142V23.2968C13.2188 23.6851 13.5336 23.9999 13.9219 23.9999C14.3102 23.9999 14.625 23.6851 14.625 23.2968V20.5142C14.625 20.1258 14.3102 19.811 13.9219 19.811Z" fill="#BB8FCE"/>
</svg>
